<svg width="118" height="29" viewBox="0 0 118 29" fill="none" xmlns="http://www.w3.org/2000/svg">
<path d="M91.1328 19.3337H94.5066V7.85742H91.1328V19.3337Z" fill="#04165D"/>
<path d="M82.4298 16.5479C80.9884 16.5479 79.7153 15.5309 79.7153 13.5838C79.7153 11.7375 80.9475 10.6242 82.4389 10.6242C82.5662 10.6242 82.6935 10.6334 82.8208 10.6517L85.167 10.8258L85.1533 13.3456C85.1579 13.4234 85.1624 13.5059 85.1624 13.5838C85.1624 13.68 85.1579 13.7716 85.1533 13.8633C85.0306 15.4072 83.8939 16.5479 82.4298 16.5479ZM81.6068 19.6953C83.2709 19.6953 84.6123 19.031 85.3034 17.8674V19.3334H88.518V7.85709H86.4083C84.9033 7.79295 83.5301 7.61886 82.0478 7.51349L81.9796 7.50891C81.8478 7.49975 81.7159 7.49517 81.5841 7.49517C78.5877 7.49517 76.3643 10.2486 76.3643 13.5838C76.3643 16.9465 78.5513 19.6953 81.6068 19.6953ZM72.8768 19.3334H75.3958V16.5204H73.6043C72.895 16.5204 72.3221 16.1356 72.3221 15.0178V10.7617H75.4003V7.85709H72.3221V3.83008L68.9438 3.8484V7.85709H66.7568L67.8526 10.7617H68.9438V14.862C68.9393 18.8294 71.199 19.3334 72.8768 19.3334ZM58.6406 19.3334H55.285V7.85709H57.3948C58.6179 7.8067 59.8046 7.59595 61.0232 7.50891C64.4606 7.27984 66.6385 10.3494 66.6385 13.5884C66.6385 15.4988 66.6431 17.4046 66.6431 19.3151H63.2875V13.5884C63.3557 11.4214 62.0008 10.386 60.182 10.6563L58.6315 10.8304C58.6406 13.6617 58.6406 16.4975 58.6406 19.3334ZM49.5333 7.85709H52.8889V19.3334H50.7791C49.556 19.3838 48.3693 19.5945 47.1507 19.6816C43.7133 19.9106 41.5354 16.8411 41.5354 13.6021C41.5354 11.6917 41.5308 9.78584 41.5308 7.87542H44.8864V13.6021C44.8182 15.7691 46.1732 16.8045 47.9919 16.5342L49.5424 16.3601C49.5333 13.5288 49.5333 10.693 49.5333 7.85709ZM34.2331 16.5479C32.6372 16.5479 31.5095 15.343 31.5095 13.5975C31.5095 11.8612 32.6372 10.6471 34.2331 10.6471C35.8291 10.6471 36.9567 11.8658 36.9567 13.5975C36.9567 15.343 35.8245 16.5479 34.2331 16.5479ZM34.1967 19.6953C37.8115 19.6953 40.3077 16.9694 40.3077 13.5975C40.3077 10.2486 37.8115 7.49975 34.2058 7.49975C30.6229 7.49975 28.1494 10.2577 28.1494 13.5975C28.154 16.9557 30.6365 19.6953 34.1967 19.6953Z" fill="#04165D"/>
<path d="M7.2749 19.3337H10.8578L12.813 9.56166L16.2186 16.9285H18.1237L21.5702 9.59373L23.5754 19.3383H27.1401L23.5117 3.83954C22.7069 3.83954 21.8976 3.83954 21.0928 3.83954C20.3971 3.83954 20.0834 4.53591 20.0834 4.53591L17.1734 10.9956V11.0048C16.2231 8.84697 15.2728 6.69373 14.3225 4.53591C14.318 4.52675 14.0133 3.83496 13.3222 3.83496H10.8578L7.2749 19.3337Z" fill="#04165D"/>
<path d="M100.558 19.3336H97.2026V7.85732H99.3124C100.535 7.80692 101.722 7.59618 102.941 7.50914C106.378 7.28007 108.556 10.3496 108.556 13.5886C108.556 15.499 108.561 17.4049 108.561 19.3153H105.205V13.5886C105.273 11.4216 103.918 10.3862 102.1 10.6565L100.549 10.8306C100.563 13.6619 100.558 16.4978 100.558 19.3336Z" fill="#04165D"/>
<path fill-rule="evenodd" clip-rule="evenodd" d="M92.6603 1.58984C92.5603 1.58984 92.4557 1.67689 92.4057 1.8464C92.242 2.42365 91.9238 2.90928 91.4873 3.25746C91.2508 3.40406 90.9871 3.50943 90.6916 3.57815C90.3505 3.67436 90.3551 3.98589 90.6916 4.0821C91.119 4.2058 91.4963 4.41654 91.8055 4.70059C92.0783 5.00754 92.2829 5.38321 92.4057 5.80928C92.4557 5.98337 92.5558 6.06583 92.6603 6.06583C92.7604 6.06583 92.8649 5.97879 92.915 5.80928C93.0377 5.38321 93.2423 5.00754 93.5151 4.70059C93.8198 4.42112 94.1972 4.2058 94.6291 4.0821C94.9656 3.98589 94.9701 3.67436 94.6291 3.57815C94.3336 3.50943 94.0699 3.39948 93.8334 3.25746C93.3969 2.91386 93.0787 2.42823 92.915 1.8464C92.8649 1.67689 92.7649 1.58984 92.6603 1.58984Z" fill="#FDC600"/>
<path d="M36.5247 23.3096H37.0113C37.1022 23.3096 37.1477 23.3554 37.1477 23.4516V26.8876C37.1477 26.9838 37.1022 27.0296 37.0113 27.0296H36.5247C36.4293 27.0296 36.3838 26.9838 36.3838 26.8876V23.4516C36.3838 23.3554 36.4293 23.3096 36.5247 23.3096Z" fill="#04165D"/>
<path d="M39.0801 23.4526C39.0801 23.3564 39.1255 23.3105 39.221 23.3105H42.0037C42.0992 23.3105 42.1447 23.3564 42.1447 23.4526V23.897C42.1447 23.9886 42.0992 24.0344 42.0037 24.0344H40.9943V26.8932C40.9943 26.9894 40.9488 27.0352 40.8534 27.0352H40.3714C40.2759 27.0352 40.2304 26.9894 40.2304 26.8932V24.0344H39.221C39.1255 24.0344 39.0801 23.9886 39.0801 23.897V23.4526Z" fill="#04165D"/>
<path d="M46.5232 25.1153L46.5596 25.0924C46.3277 24.8129 46.2095 24.5335 46.2095 24.2494C46.2095 23.947 46.3049 23.7042 46.4959 23.521C46.6869 23.3377 46.9415 23.2461 47.2552 23.2461C47.5599 23.2461 47.8099 23.3286 47.9964 23.4935C48.1828 23.6584 48.2783 23.8737 48.2783 24.144C48.2783 24.5609 48.0828 24.8816 47.6872 25.1015L47.5508 25.1748L47.9782 25.6284C48.0009 25.5597 48.0146 25.5047 48.0191 25.4681C48.0873 25.2023 48.1873 25.0145 48.3192 24.9C48.4511 24.7854 48.6466 24.7305 48.8966 24.7305H49.0331C49.1285 24.7305 49.174 24.7763 49.174 24.8725V25.2252C49.174 25.3214 49.1285 25.3673 49.0331 25.3673H48.9194C48.7511 25.3673 48.642 25.4635 48.5966 25.6559L48.5738 25.7613C48.5511 25.8666 48.5102 25.9903 48.4602 26.1232L49.1558 26.8516C49.1876 26.8883 49.2013 26.9203 49.2013 26.9478C49.2013 26.957 49.1967 26.9707 49.1876 26.9936C49.1786 27.0166 49.1467 27.0303 49.0876 27.0303H48.5056C48.4374 27.0303 48.3783 27.0074 48.3328 26.957L48.0873 26.705C47.8281 26.957 47.5008 27.0853 47.1006 27.0853C46.7278 27.0853 46.4368 26.9982 46.2276 26.8287C46.0185 26.6546 45.9185 26.4164 45.9185 26.1049C45.9185 25.6742 46.1185 25.3444 46.5232 25.1153ZM46.6232 26.0041C46.6232 26.1507 46.6732 26.2652 46.7687 26.3477C46.8642 26.4301 47.0052 26.4668 47.1825 26.4668C47.3689 26.4668 47.528 26.3935 47.6599 26.2515L46.9551 25.5139L46.9097 25.5414C46.7187 25.6467 46.6232 25.8025 46.6232 26.0041ZM47.087 24.6938L47.1552 24.7625L47.2916 24.6892C47.5371 24.5518 47.6599 24.3869 47.6599 24.199C47.6599 24.0891 47.6235 24.002 47.5508 23.9333C47.478 23.8646 47.3825 23.8325 47.2643 23.8325C47.1461 23.8325 47.0506 23.8692 46.9779 23.947C46.9051 24.0249 46.8688 24.1257 46.8688 24.254C46.8733 24.3914 46.946 24.5426 47.087 24.6938Z" fill="#04165D"/>
<path d="M53.0615 23.4526C53.0615 23.3564 53.107 23.3105 53.2025 23.3105H54.4256C54.9848 23.3105 55.4304 23.4801 55.7715 23.8237C56.1125 24.1627 56.2807 24.6117 56.2807 25.166C56.2807 25.7295 56.1034 26.1785 55.7533 26.5221C55.4032 26.8657 54.9485 27.0306 54.371 27.0306H53.2025C53.107 27.0306 53.0615 26.9848 53.0615 26.8886V23.4526ZM53.8254 24.0298V26.3068H54.3528C54.6893 26.3068 54.9576 26.2014 55.1622 25.9906C55.3668 25.7799 55.4714 25.505 55.4714 25.1614C55.4714 24.8224 55.3713 24.5521 55.1667 24.3414C54.9621 24.1306 54.6938 24.0298 54.3574 24.0298H53.8254Z" fill="#04165D"/>
<path d="M58.4227 23.3096H60.6552C60.7461 23.3096 60.7916 23.3554 60.7916 23.4516V23.896C60.7916 23.9876 60.7461 24.0334 60.6552 24.0334H59.0456V24.8306H60.3869C60.4824 24.8306 60.5279 24.8764 60.5279 24.9726V25.3758C60.5279 25.4674 60.4824 25.5132 60.3869 25.5132H59.0456V26.3149H60.7188C60.8143 26.3149 60.8598 26.3608 60.8598 26.457V26.8968C60.8598 26.993 60.8143 27.0388 60.7188 27.0388H58.4227C58.3272 27.0388 58.2817 26.993 58.2817 26.8968V23.4608C58.2817 23.3554 58.3318 23.3096 58.4227 23.3096Z" fill="#04165D"/>
<path d="M62.7331 25.8892L63.1696 25.8205C63.1787 25.8159 63.1924 25.8159 63.2014 25.8159C63.2606 25.8159 63.306 25.8572 63.3333 25.935C63.3742 26.0862 63.4652 26.2053 63.6061 26.2924C63.7471 26.3794 63.9153 26.4253 64.1199 26.4253C64.3109 26.4253 64.4655 26.384 64.5791 26.3016C64.6928 26.2191 64.7474 26.1091 64.7474 25.9763C64.7474 25.7793 64.6201 25.651 64.3654 25.596L63.6107 25.4219C63.3151 25.3532 63.0878 25.2249 62.9286 25.0417C62.7695 24.8584 62.6922 24.6339 62.6922 24.3682C62.6922 24.0292 62.8195 23.7589 63.0787 23.5527C63.3378 23.3466 63.6698 23.2412 64.0835 23.2412C64.4109 23.2412 64.6883 23.3191 64.9156 23.4703C65.143 23.6215 65.3021 23.823 65.393 24.075C65.4021 24.0979 65.4021 24.1162 65.4021 24.1392C65.4021 24.1941 65.3658 24.2354 65.2976 24.2537L64.8792 24.382C64.8611 24.3911 64.8474 24.3911 64.8338 24.3911C64.7792 24.3911 64.7383 24.3545 64.7156 24.2858C64.6655 24.1712 64.5837 24.0796 64.47 24.0109C64.3563 23.9422 64.2199 23.9101 64.0653 23.9101C63.8926 23.9101 63.7516 23.9513 63.6425 24.0338C63.5334 24.1162 63.4788 24.2216 63.4788 24.3545C63.4788 24.5423 63.6107 24.6706 63.8698 24.7347L64.6201 24.918C64.9156 24.9913 65.143 25.1196 65.2976 25.3074C65.4521 25.4907 65.5294 25.7106 65.5294 25.9671C65.5294 26.3061 65.3976 26.581 65.1339 26.7872C64.8701 26.9933 64.5246 27.0941 64.0972 27.0941C63.6925 27.0941 63.3606 26.9979 63.0969 26.8055C62.8332 26.6131 62.674 26.3611 62.6149 26.0496C62.6104 26.0358 62.6104 26.0221 62.6104 26.0084C62.6104 25.9442 62.6513 25.903 62.7331 25.8892Z" fill="#04165D"/>
<path d="M67.6576 23.3096H68.1441C68.235 23.3096 68.2805 23.3554 68.2805 23.4516V26.8876C68.2805 26.9838 68.235 27.0296 68.1441 27.0296H67.6576C67.5621 27.0296 67.5166 26.9838 67.5166 26.8876V23.4516C67.5166 23.3554 67.5621 23.3096 67.6576 23.3096Z" fill="#04165D"/>
<path d="M70.7855 23.7775C71.122 23.4248 71.5631 23.2461 72.1132 23.2461C72.5043 23.2461 72.8453 23.3377 73.1408 23.5256C73.4318 23.7134 73.6364 23.9608 73.7455 24.2677C73.7546 24.2906 73.7546 24.309 73.7546 24.3273C73.7546 24.3823 73.7228 24.4235 73.6546 24.4464L73.2136 24.6022C73.1908 24.6113 73.1726 24.6113 73.1545 24.6113C73.1044 24.6113 73.0635 24.5793 73.0362 24.5197C72.9589 24.3594 72.8407 24.2311 72.6816 24.1303C72.5224 24.0341 72.3406 23.9837 72.1451 23.9837C71.8313 23.9837 71.5767 24.0891 71.3812 24.3044C71.1857 24.5197 71.0902 24.8038 71.0902 25.1519C71.0902 25.5093 71.1902 25.7933 71.3903 26.0087C71.5903 26.224 71.8495 26.3339 72.1678 26.3339C72.427 26.3339 72.6361 26.2606 72.8043 26.114C72.968 25.9674 73.0635 25.7704 73.0772 25.5276H72.1814C72.0859 25.5276 72.0405 25.4818 72.0405 25.3856V25.0282C72.0405 24.9366 72.0859 24.8908 72.1814 24.8908H73.7137C73.8092 24.8908 73.8547 24.9366 73.8547 25.0282V26.8791C73.8547 26.9753 73.8092 27.0211 73.7137 27.0211H73.45C73.3682 27.0211 73.3181 26.9845 73.2954 26.9112L73.1545 26.5355C72.9135 26.902 72.5315 27.0853 72.0041 27.0853C71.4903 27.0853 71.0765 26.9112 70.7583 26.5538C70.44 26.2011 70.2808 25.7384 70.2808 25.1703C70.2763 24.6022 70.4491 24.1349 70.7855 23.7775Z" fill="#04165D"/>
<path d="M76.1097 23.3096H76.7554C76.8236 23.3096 76.8827 23.3416 76.9236 23.4104L78.3422 25.8614V23.4516C78.3422 23.3554 78.3877 23.3096 78.4832 23.3096H78.9697C79.0606 23.3096 79.1061 23.3554 79.1061 23.4516V26.8876C79.1061 26.9838 79.0606 27.0296 78.9697 27.0296H78.324C78.2467 27.0296 78.1922 26.9976 78.1558 26.9334L76.7326 24.4778V26.8876C76.7326 26.9838 76.6872 27.0296 76.5962 27.0296H76.1097C76.0142 27.0296 75.9688 26.9838 75.9688 26.8876V23.4516C75.9688 23.3554 76.0188 23.3096 76.1097 23.3096Z" fill="#04165D"/>
</svg>
