<svg width="17" height="17" viewBox="0 0 17 17" fill="none" xmlns="http://www.w3.org/2000/svg">
<path d="M8.47416 15.5834C12.3743 15.5834 15.536 12.4121 15.536 8.50008C15.536 4.58806 12.3743 1.41675 8.47416 1.41675C4.57403 1.41675 1.41235 4.58806 1.41235 8.50008C1.41235 12.4121 4.57403 15.5834 8.47416 15.5834Z" stroke="white" stroke-linecap="round" stroke-linejoin="round"/>
<path d="M5.64936 2.125H6.35554C4.97849 6.26167 4.97849 10.7383 6.35554 14.875H5.64936" stroke="white" stroke-linecap="round" stroke-linejoin="round"/>
<path d="M10.5928 2.125C11.9698 6.26167 11.9698 10.7383 10.5928 14.875" stroke="white" stroke-linecap="round" stroke-linejoin="round"/>
<path d="M2.11865 11.3333V10.625C6.24275 12.0062 10.7058 12.0062 14.8299 10.625V11.3333" stroke="white" stroke-linecap="round" stroke-linejoin="round"/>
<path d="M2.11865 6.37505C6.24275 4.9938 10.7058 4.9938 14.8299 6.37505" stroke="white" stroke-linecap="round" stroke-linejoin="round"/>
</svg>
