<svg width="25" height="24" viewBox="0 0 25 24" fill="none" xmlns="http://www.w3.org/2000/svg">
<path d="M12.2651 2C14.9821 2 15.3211 2.01 16.3871 2.06C17.4521 2.11 18.1771 2.277 18.8151 2.525C19.4751 2.779 20.0311 3.123 20.5871 3.678C21.0956 4.1779 21.4891 4.78259 21.7401 5.45C21.9871 6.087 22.1551 6.813 22.2051 7.878C22.2521 8.944 22.2651 9.283 22.2651 12C22.2651 14.717 22.2551 15.056 22.2051 16.122C22.1551 17.187 21.9871 17.912 21.7401 18.55C21.4898 19.2178 21.0963 19.8226 20.5871 20.322C20.0871 20.8303 19.4824 21.2238 18.8151 21.475C18.1781 21.722 17.4521 21.89 16.3871 21.94C15.3211 21.987 14.9821 22 12.2651 22C9.54814 22 9.20914 21.99 8.14314 21.94C7.07814 21.89 6.35314 21.722 5.71514 21.475C5.04746 21.2245 4.44266 20.8309 3.94314 20.322C3.43454 19.8222 3.04107 19.2175 2.79014 18.55C2.54214 17.913 2.37514 17.187 2.32514 16.122C2.27814 15.056 2.26514 14.717 2.26514 12C2.26514 9.283 2.27514 8.944 2.32514 7.878C2.37514 6.812 2.54214 6.088 2.79014 5.45C3.04037 4.78218 3.43394 4.17732 3.94314 3.678C4.44281 3.16923 5.04756 2.77573 5.71514 2.525C6.35314 2.277 7.07714 2.11 8.14314 2.06C9.20914 2.013 9.54814 2 12.2651 2ZM12.2651 7C10.9391 7 9.66728 7.52678 8.7296 8.46447C7.79192 9.40215 7.26514 10.6739 7.26514 12C7.26514 13.3261 7.79192 14.5979 8.7296 15.5355C9.66728 16.4732 10.9391 17 12.2651 17C13.5912 17 14.863 16.4732 15.8007 15.5355C16.7384 14.5979 17.2651 13.3261 17.2651 12C17.2651 10.6739 16.7384 9.40215 15.8007 8.46447C14.863 7.52678 13.5912 7 12.2651 7ZM18.7651 6.75C18.7651 6.41848 18.6334 6.10054 18.399 5.86612C18.1646 5.6317 17.8467 5.5 17.5151 5.5C17.1836 5.5 16.8657 5.6317 16.6313 5.86612C16.3968 6.10054 16.2651 6.41848 16.2651 6.75C16.2651 7.08152 16.3968 7.39946 16.6313 7.63388C16.8657 7.8683 17.1836 8 17.5151 8C17.8467 8 18.1646 7.8683 18.399 7.63388C18.6334 7.39946 18.7651 7.08152 18.7651 6.75ZM12.2651 9C13.0608 9 13.8238 9.31607 14.3865 9.87868C14.9491 10.4413 15.2651 11.2044 15.2651 12C15.2651 12.7956 14.9491 13.5587 14.3865 14.1213C13.8238 14.6839 13.0608 15 12.2651 15C11.4695 15 10.7064 14.6839 10.1438 14.1213C9.58121 13.5587 9.26514 12.7956 9.26514 12C9.26514 11.2044 9.58121 10.4413 10.1438 9.87868C10.7064 9.31607 11.4695 9 12.2651 9Z" fill="#F03D69"/>
</svg>
