<svg width="100" height="41" viewBox="0 0 100 41" fill="none" xmlns="http://www.w3.org/2000/svg">
<path d="M16.888 40.0011C16.0938 40.0011 15.4642 39.7643 14.9998 39.2913L15.515 38.5681C15.8986 38.9695 16.3722 39.1708 16.9346 39.1708C17.1799 39.1708 17.3708 39.1231 17.5073 39.027C17.6431 38.9309 17.7117 38.814 17.7117 38.6758C17.7117 38.5552 17.648 38.4549 17.5207 38.3747C17.3935 38.2946 17.235 38.2364 17.0453 38.2003C16.8556 38.1648 16.6494 38.1134 16.4261 38.0461C16.2027 37.9794 15.9965 37.9036 15.8068 37.8185C15.6172 37.7334 15.4587 37.6001 15.3314 37.4171C15.2041 37.2341 15.1405 37.0108 15.1405 36.7477C15.1405 36.364 15.2947 36.0416 15.6025 35.7803C15.9102 35.519 16.3208 35.3887 16.8342 35.3887C17.544 35.3887 18.1241 35.5961 18.575 36.0116L18.0464 36.7079C17.6939 36.3824 17.2607 36.219 16.7473 36.219C16.5466 36.219 16.3906 36.2594 16.2786 36.3396C16.1672 36.4197 16.1109 36.5293 16.1109 36.6675C16.1109 36.7746 16.1746 36.8652 16.3019 36.9386C16.4291 37.012 16.5876 37.0671 16.7773 37.1026C16.967 37.1381 17.1726 37.1907 17.3935 37.2598C17.6144 37.329 17.82 37.4073 18.0096 37.4942C18.1993 37.5811 18.3578 37.7175 18.4851 37.9023C18.6124 38.0877 18.676 38.3098 18.676 38.5687C18.676 38.997 18.523 39.3433 18.2171 39.6064C17.9111 39.8696 17.4681 40.0017 16.888 40.0017V40.0011ZM23.371 39.921H22.2861L22.0114 39.1647H20.0968L19.8153 39.921H18.7304L20.4578 35.4554H21.6498L23.3704 39.921H23.371ZM21.7507 38.3276L21.0544 36.4063L20.3581 38.3276H21.7507ZM26.5798 39.921H23.7412V35.4554H24.6921V39.0839H26.5804V39.921H26.5798ZM29.1326 40.0011C28.4583 40.0011 27.9021 39.7833 27.4621 39.3482C27.0228 38.9132 26.8025 38.3606 26.8025 37.6912C26.8025 37.0218 27.0222 36.4693 27.4621 36.0342C27.9021 35.5992 28.4589 35.3813 29.1326 35.3813C29.8112 35.3813 30.3698 35.598 30.8098 36.0306C31.2497 36.4632 31.4694 37.0169 31.4694 37.6912C31.4694 38.3655 31.2497 38.9187 30.8098 39.3519C30.3704 39.7851 29.8112 40.0011 29.1326 40.0011ZM28.1517 38.7425C28.3995 39.019 28.7263 39.1573 29.1326 39.1573C29.5389 39.1573 29.8668 39.019 30.1165 38.7425C30.3661 38.4659 30.4916 38.1153 30.4916 37.6912C30.4916 37.2672 30.3668 36.9166 30.1165 36.64C29.8662 36.3634 29.5383 36.2245 29.1326 36.2245C28.7263 36.2245 28.3995 36.3628 28.1517 36.64C27.9039 36.9166 27.7803 37.2672 27.7803 37.6912C27.7803 38.1153 27.9039 38.4659 28.1517 38.7425ZM36.9348 39.921H35.9772V36.7942L34.7185 39.921H34.3036L33.045 36.7942V39.921H32.0941V35.4554H33.4262L34.5111 38.1538L35.596 35.4554H36.9348V39.921ZM41.9382 39.921H40.8533L40.5786 39.1647H38.664L38.3825 39.921H37.2976L39.025 35.4554H40.217L41.9376 39.921H41.9382ZM40.3179 38.3276L39.6216 36.4063L38.9253 38.3276H40.3179ZM43.8687 39.921H42.9111V36.2924H41.6053V35.4554H45.1671V36.2924H43.8687V39.921ZM48.5705 39.921H45.7319V35.4554H46.6828V39.0839H48.5711V39.921H48.5705ZM50.1394 39.921H49.1885V35.4554H50.1394V39.921ZM54.8013 39.921H53.6296L52.2773 38.1336L51.9291 38.5485V39.921H50.9783V35.4554H51.9291V37.4508L53.509 35.4554H54.6808L52.9063 37.5511L54.8007 39.921H54.8013ZM61.7463 39.921H60.7887V36.7942L59.53 39.921H59.1152L57.8565 36.7942V39.921H56.9056V35.4554H58.2377L59.3226 38.1538L60.4075 35.4554H61.7463V39.921ZM66.7497 39.921H65.6648L65.3901 39.1647H63.4755L63.194 39.921H62.1091L63.8365 35.4554H65.0285L66.7491 39.921H66.7497ZM65.1294 38.3276L64.4331 36.4063L63.7368 38.3276H65.1294ZM70.7356 39.921H69.6446L68.7677 38.3343H68.0714V39.921H67.1205V35.4554H69.2095C69.669 35.4554 70.0343 35.5894 70.3042 35.8568C70.574 36.1248 70.7092 36.4705 70.7092 36.8945C70.7092 37.2605 70.6144 37.5572 70.4247 37.7848C70.235 38.0125 70.0037 38.1575 69.7314 38.2199L70.7356 39.9203V39.921ZM69.0682 37.4973C69.2646 37.4973 69.4255 37.4428 69.5503 37.3333C69.6752 37.2237 69.7376 37.0775 69.7376 36.8945C69.7376 36.7116 69.6752 36.5654 69.5503 36.4558C69.4255 36.3463 69.2646 36.2918 69.0682 36.2918H68.0708V37.4967H69.0682V37.4973ZM75.203 39.921H74.0312L72.6789 38.1336L72.3308 38.5485V39.921H71.3799V35.4554H72.3308V37.4508L73.9107 35.4554H75.0824L73.3079 37.5511L75.2024 39.921H75.203ZM79.7579 39.921H78.673L78.3983 39.1647H76.4837L76.2022 39.921H75.1173L76.8447 35.4554H78.0366L79.7573 39.921H79.7579ZM78.1376 38.3276L77.4413 36.4063L76.7449 38.3276H78.1376ZM83.3686 39.921H79.9671V39.1512L82.0763 36.2924H79.9671V35.4554H83.3215V36.2184L81.2123 39.0839H83.368V39.921H83.3686ZM84.9975 39.921H84.0466V35.4554H84.9975V39.921Z" fill="#F03D69"/>
<path d="M71.2302 25.4804C72.4619 25.4804 73.4446 25.0833 74.1782 24.2884C74.9052 23.4942 75.2686 22.3842 75.2686 20.9665V20.343L70.833 21.1715C69.3523 21.4113 68.6051 22.1646 68.6051 23.4385C68.6051 24.8012 69.4802 25.4798 71.2302 25.4798V25.4804ZM75.2686 27.5492C75.1138 27.734 74.8917 27.9671 74.609 28.2412C74.3263 28.5154 73.7138 28.8782 72.7648 29.3237C71.8225 29.7759 70.833 30.0016 69.81 30.0016C67.8378 30.0016 66.2359 29.4399 64.9975 28.3238C63.759 27.2071 63.1465 25.8512 63.1465 24.2621C63.1465 22.6112 63.6648 21.2418 64.7013 20.1453C65.7378 19.0494 67.1715 18.3305 69.0023 18.0019L75.2686 16.8583C75.2686 16.0157 74.9725 15.3242 74.3667 14.7895C73.7609 14.2553 72.9196 13.9879 71.8427 13.9879C70.9475 13.9879 70.133 14.1592 69.3927 14.4945C68.659 14.8372 68.1407 15.1866 67.8378 15.5494C67.6873 15.7116 67.5374 15.8737 67.3869 16.0359C63.6066 13.1563 65.651 10.6635 69.4128 9.48131C70.335 9.19372 71.2773 9.04932 72.233 9.04932C74.7302 9.04932 76.7696 9.8099 78.3513 11.3298C79.9263 12.8436 80.7138 14.7546 80.7138 17.0559C80.7138 19.8241 80.7138 22.5917 80.7138 25.3598C80.7138 26.7727 80.7138 28.1849 80.7138 29.5972C78.2632 29.5972 75.2686 30.3051 75.2686 27.5492Z" fill="#171A63"/>
<path d="M48.5749 5.95916V12.3234C48.7364 12.1111 48.9518 11.8437 49.2345 11.5286C49.5172 11.2135 50.1499 10.7888 51.1326 10.2546C52.1085 9.72045 53.1384 9.45305 54.2153 9.45305C56.4768 9.45305 58.3211 10.2473 59.748 11.8437C61.1749 13.4328 61.8884 15.5768 61.8884 18.282V30.0009H56.4432V18.9049C56.4432 17.672 56.0864 16.6789 55.3662 15.9256C54.6528 15.1657 53.7307 14.7887 52.5999 14.7887C51.3614 14.7887 50.3855 15.1999 49.6585 16.0217C48.9383 16.8502 48.5749 18.0152 48.5749 19.5284V30.0009H43.1162C43.1162 20.4095 43.1162 10.8182 43.1162 1.22681C48.4097 1.22681 48.5749 1.29595 48.5749 5.95855V5.95916Z" fill="#171A63"/>
<path d="M34.9052 14.8298C34.111 14.1311 33.135 13.7817 31.9773 13.7817C30.8196 13.7817 29.8369 14.1243 29.0293 14.809C28.2216 15.487 27.6494 16.3773 27.3264 17.4732H36.4129C36.2043 16.4048 35.6995 15.5213 34.9052 14.8292V14.8298ZM41.6562 21.3709H27.3264C27.535 22.4668 28.1071 23.392 29.036 24.152C29.9716 24.9058 31.1495 25.2821 32.5696 25.2821C33.5927 25.2821 34.5418 25.0765 35.4168 24.6727C36.6246 24.1055 36.9826 23.7438 37.8331 22.8162C40.2342 25.5293 40.6674 26.9587 37.5168 28.8023C36.9269 29.1474 36.1302 29.3983 35.161 29.6382C34.1985 29.8774 33.2023 30.001 32.1725 30.001C29.2716 30.001 26.7879 28.9737 24.7417 26.9183C22.6889 24.8636 21.6658 22.3977 21.6658 19.5212C21.6658 16.6447 22.6754 14.1855 24.7014 12.1308C26.7273 10.0761 29.1504 9.0481 31.9773 9.0481C34.8043 9.0481 37.1533 10.0069 39.0379 11.9246C40.9158 13.8496 41.8581 16.247 41.8581 19.1235L41.6562 21.3697V21.3709Z" fill="#171A63"/>
<path d="M13.9395 20.9529C13.9395 19.9874 13.4616 19.2133 12.5125 18.6241C11.5568 18.0348 10.3923 17.5417 9.01925 17.1445C7.64617 16.7542 6.27982 16.2885 4.9202 15.7543C3.56059 15.2201 2.39616 14.3366 1.44039 13.1036C0.477886 11.8707 0 10.3158 0 8.42511C0 6.10299 0.915387 4.11006 2.75289 2.46592C4.58367 0.82238 6.96636 0 9.90099 0C11.052 0 12.1693 0.137063 13.2529 0.41119C14.3298 0.685316 15.203 1.02492 15.9048 1.37675C19.4728 3.16469 17.8598 5.62755 15.5548 7.80832C15.4 7.6168 15.1779 7.3904 14.8952 7.10955C14.6125 6.83542 14.0202 6.47257 13.1116 6.02038C12.2029 5.56146 11.2741 5.33568 10.3116 5.33568C9.15387 5.33568 8.22502 5.63734 7.52502 6.24005C6.81829 6.84276 6.46829 7.56846 6.46829 8.42511C6.46829 9.39067 6.94617 10.1647 7.89521 10.7472C8.85098 11.3291 10.0087 11.8229 11.3683 12.22C12.7279 12.6239 14.0943 13.0902 15.4673 13.6243C16.8404 14.1585 18.0116 15.0421 18.9674 16.275C19.9299 17.508 20.4077 19.0628 20.4077 20.9529C20.4077 23.6104 19.4587 25.7887 17.5606 27.4732C15.6558 29.1584 13.0375 30.0003 9.69906 30.0003C8.38656 30.0003 7.11444 29.8363 5.88271 29.5072C4.6577 29.178 3.65604 28.76 2.84712 28.336C-1.0861 26.2739 -0.293707 24.065 2.63847 21.5685C2.82693 21.7882 3.0827 22.0617 3.41924 22.4043C3.75578 22.7464 4.5029 23.2059 5.66059 23.7811C6.81829 24.3563 8.0231 24.6439 9.28848 24.6439C10.7491 24.6439 11.8866 24.2945 12.7077 23.5957C13.5289 22.9036 13.9395 22.0201 13.9395 20.9517V20.9529Z" fill="#171A63"/>
<path d="M87.5627 9.87036H81.8018V12.6477C81.8018 14.1756 83.0518 15.4251 84.5791 15.4251H87.5627V9.87036Z" fill="#171A63"/>
<path d="M93.621 22.8154C93.621 23.4457 93.8499 23.9798 94.3008 24.4186C94.7585 24.8634 95.3306 25.0831 96.0306 25.0831C96.3874 25.0831 96.7306 25.0421 97.0672 24.9735C97.397 24.8983 97.6528 24.823 97.821 24.7404L98.0633 24.6584V29.3981C96.9797 29.8093 95.7681 30.0149 94.4153 30.0008C90.2422 30.0008 88.1624 27.672 88.1624 23.0143V19.7578V16.0259H93.621V22.816V22.8154Z" fill="#171A63"/>
<path fill-rule="evenodd" clip-rule="evenodd" d="M99.9999 15.4251H93.6215H92.6266H88.1628V11.4282V9.87032V3.47485H90.8925C92.3934 3.47485 93.6215 4.70292 93.6215 6.20449V9.87032H97.2225C98.7504 9.87032 99.9999 11.1204 99.9999 12.6477V15.4251Z" fill="#F03D69"/>
</svg>
