<svg width="16" height="16" viewBox="0 0 16 16" fill="none" xmlns="http://www.w3.org/2000/svg">
<path d="M7.27251 11.0873C7.23396 11.0496 7.06913 10.9074 6.93354 10.7749C6.08081 9.99813 4.68507 7.97183 4.25903 6.91127C4.19057 6.7502 4.04568 6.34299 4.03638 6.12543C4.03638 5.91695 4.08423 5.71822 4.18127 5.52858C4.31686 5.29217 4.5302 5.10253 4.7821 4.99862C4.9569 4.93173 5.47998 4.82781 5.48928 4.82781C6.06154 4.7239 6.99137 4.66675 8.0189 4.66675C8.99792 4.66675 9.88986 4.7239 10.4708 4.80898C10.4801 4.81872 11.1301 4.92263 11.3527 5.03629C11.7595 5.24476 12.0121 5.65197 12.0121 6.08776V6.12543C12.0021 6.40924 11.7495 7.00609 11.7402 7.00609C11.3135 8.0095 9.98624 9.98904 9.10426 10.7846C9.10426 10.7846 8.87762 11.0087 8.73605 11.1061C8.53267 11.2581 8.28077 11.3334 8.02887 11.3334C7.74773 11.3334 7.48586 11.2483 7.27251 11.0873" fill="white"/>
</svg>
