<svg width="25" height="24" viewBox="0 0 25 24" fill="none" xmlns="http://www.w3.org/2000/svg">
<path d="M12.2651 22C6.74214 22 2.26514 17.523 2.26514 12C2.26514 6.477 6.74214 2 12.2651 2C17.7881 2 22.2651 6.477 22.2651 12C22.2651 17.523 17.7881 22 12.2651 22ZM9.15514 13.17L9.16814 13.163L10.0381 16.033C10.1501 16.344 10.3041 16.4 10.4911 16.374C10.6791 16.349 10.7781 16.248 10.9011 16.13L12.0891 14.982L14.6391 16.87C15.1051 17.127 15.4401 16.994 15.5561 16.438L17.2131 8.616C17.3961 7.888 17.0761 7.596 16.5111 7.828L6.77814 11.588C6.11414 11.854 6.11814 12.226 6.65814 12.391L9.15514 13.171V13.17Z" fill="#F03D69"/>
</svg>
