<svg width="43" height="38" viewBox="0 0 43 38" fill="none" xmlns="http://www.w3.org/2000/svg">
<path fill-rule="evenodd" clip-rule="evenodd" d="M33.9138 9.55789C33.8319 4.79549 33.8483 0.0330872 33.8483 0.0330872C26.5821 -0.481767 24.6043 5.11191 24.648 9.84213C24.6699 11.8157 24.6754 13.7464 24.6754 15.6879H29.1334C30.991 15.6879 32.5098 17.1788 32.5098 19.0022V22.3166H24.659C24.6535 24.5906 24.6426 26.961 24.6426 29.5085C26.0685 30.0341 28.1446 30.1681 28.3085 33.3216C28.598 38.8509 40.1202 40.4438 42.3437 30.5382C44.5728 20.6272 34.0504 17.1734 33.9138 9.55789Z" fill="#ED406A"/>
<path fill-rule="evenodd" clip-rule="evenodd" d="M8.74915 9.8367C8.8311 5.0743 8.81471 0.311896 8.81471 0.311896C16.0809 -0.202958 18.0586 5.39072 18.0149 10.1209C17.9985 12.0034 17.9876 13.8429 17.9876 15.6878H10.1478V19.0022C10.1478 20.8256 11.6666 22.3166 13.5241 22.3166H17.9931C17.9985 24.6763 18.0095 27.1379 18.0095 29.7819C16.5835 30.3075 14.5075 30.4416 14.3436 33.5951C14.054 39.1244 2.53189 40.7172 0.308322 30.8116C-1.91525 20.9061 8.61256 17.4522 8.74915 9.8367Z" fill="#111A63"/>
</svg>
