<svg width="35" height="36" viewBox="0 0 35 36" fill="none" xmlns="http://www.w3.org/2000/svg">
<path fill-rule="evenodd" clip-rule="evenodd" d="M0.881476 4.02029C2.07528 -0.688427 10.0852 -1.87197 11.061 3.80186C11.3781 5.65081 13.5824 5.80828 14.0282 5.80828V11.2586H6.77126V14.4841C6.77126 16.2569 8.18798 17.7096 9.91677 17.7096H14.0282V23.4292C10.2536 23.8558 9.80779 30.4033 10.8282 35.94C4.82946 37.1337 5.14154 20.1325 3.56631 18.3293C1.16879 15.5864 -0.599638 9.86683 0.881476 4.02029Z" fill="#111A63"/>
<path fill-rule="evenodd" clip-rule="evenodd" d="M33.471 4.02029C32.2772 -0.688427 24.2673 -1.87197 23.2914 3.80186C22.9744 5.65081 20.77 5.80828 20.3242 5.80828V11.2586H24.4357C26.1645 11.2586 27.5812 12.7113 27.5812 14.4841V17.7096H20.3242V23.4292C24.0988 23.8558 24.5447 30.4033 23.5242 35.94C29.523 37.1337 29.2109 20.1325 30.7861 18.3293C33.1886 15.5864 34.957 9.86683 33.471 4.02029Z" fill="#ED406A"/>
</svg>
