<svg width="40" height="36" viewBox="0 0 40 36" fill="none" xmlns="http://www.w3.org/2000/svg">
<path d="M15.3227 36C7.12506 27.3829 0 18.7658 0 10.1416C0 4.54473 4.42268 0 9.86921 0C15.7127 0 15.3227 6.19801 15.3227 6.19801V10.2489H5.11219V14.7936C5.11219 17.2915 7.10417 19.3384 9.53491 19.3384H15.3227V36Z" fill="#111A63"/>
<path d="M29.6146 0C35.0611 0 39.4839 4.54473 39.4839 10.1416C39.4839 18.7586 32.3588 27.3757 24.1612 36V19.3384H34.3716V14.7936C34.3716 12.2958 32.3797 10.2489 29.949 10.2489H24.1612V6.46998C24.1612 6.46998 23.6109 0 29.6146 0Z" fill="#ED406A"/>
</svg>
