<svg width="44" height="34" viewBox="0 0 44 34" fill="none" xmlns="http://www.w3.org/2000/svg">
<path fill-rule="evenodd" clip-rule="evenodd" d="M26.5146 33.5827C32.7206 33.6093 37.9609 29.7007 40.9973 23.7811C41.803 22.2163 42.5887 20.1122 43.1014 18.3276C45.0924 11.336 43.8739 6.07562 38.447 1.83403C34.5051 -1.24895 31.1158 -0.0170777 27.4935 2.38671C27.1405 2.61977 26.8209 2.78623 26.5146 2.90609V10.9698H32.048C34.3719 10.9698 36.2763 12.8741 36.2763 15.198V19.4263H26.5146V33.5827Z" fill="#ED406A"/>
<path fill-rule="evenodd" clip-rule="evenodd" d="M0.585449 32.1911L5.55281 32.1045C5.57279 32.0978 5.60611 32.0845 5.62609 32.0645C5.95236 29.9537 5.7526 25.0929 8.45603 23.5681C9.36827 23.0553 10.6134 23.2085 11.5723 23.5947C13.5899 24.4137 15.188 26.0717 18.0712 27.5966V19.0801C17.1856 19.2332 16.22 19.2865 15.168 19.2399C13.5965 19.16 12.2914 19.0202 10.7666 18.8004C9.30167 18.594 7.9566 18.2478 6.47171 18.7005C2.08363 20.0323 0.625401 26.5911 0.585449 32.1911ZM8.61584 10.9631C9.79442 7.66042 14.0826 7.50062 18.1844 5.68945C18.6904 7.07446 19.1965 8.9855 19.7092 10.9631H8.61584Z" fill="#111A63"/>
</svg>
