<svg width="41" height="34" viewBox="0 0 41 34" fill="none" xmlns="http://www.w3.org/2000/svg">
<path fill-rule="evenodd" clip-rule="evenodd" d="M9.74159 0.0102781C13.0718 -0.13368 15.4663 1.23871 17.0883 3.86835V14.0366H10.2311V17.0021C10.2311 18.6337 11.5651 19.9677 13.1966 19.9677H17.0835V33.0679C14.8617 34.0516 12.7119 34.4691 10.2886 33.2502C7.24632 32.1082 7.32789 29.6897 7.16474 27.1896C-0.292294 26.6809 -0.901715 15.5482 2.08302 14.3581C2.95157 14.6892 3.8585 15.0299 4.67427 15.4378C5.18772 15.6969 5.69157 16.004 6.02267 16.4935C6.37297 17.0069 6.51693 17.7075 6.6225 18.3122C6.82404 19.4782 6.92961 20.6971 7.06877 21.8775C7.09276 22.0935 7.2943 22.2518 7.51024 22.2278C7.72618 22.2038 7.88453 22.0023 7.86054 21.7863C7.71658 20.5915 7.61101 19.3631 7.40467 18.1826C7.27991 17.4532 7.10236 16.6758 6.68008 16.052C6.2674 15.4426 5.67717 15.0587 5.02936 14.7324C4.08404 14.2573 3.01875 13.8782 2.03023 13.4944L2.01584 13.4896C-3.48816 8.51341 3.34505 0.835639 9.74159 0.0102781Z" fill="#111A63"/>
<path fill-rule="evenodd" clip-rule="evenodd" d="M30.371 0.0102781C27.0408 -0.13368 24.6463 1.23871 23.0243 3.86835V14.0366H26.9112C28.5427 14.0366 29.8767 15.3706 29.8767 17.0021V19.9677H23.0195V33.0679C25.2413 34.0516 27.3911 34.4691 29.8144 33.2502C32.8567 32.1082 32.7751 29.6897 32.9383 27.1896C40.3953 26.6809 41.0047 15.5482 38.02 14.3581C37.1514 14.6892 36.2445 15.0299 35.4287 15.4378C34.9153 15.6969 34.4114 16.004 34.0803 16.4935C33.73 17.0069 33.5861 17.7075 33.4805 18.3122C33.2789 19.4782 33.1734 20.6971 33.0342 21.8775C33.0102 22.0935 32.8087 22.2518 32.5928 22.2278C32.3768 22.2038 32.2185 22.0023 32.2425 21.7863C32.3864 20.5915 32.492 19.3631 32.6983 18.1826C32.8231 17.4532 33.0006 16.6758 33.4229 16.052C33.8356 15.4426 34.4258 15.0587 35.0736 14.7324C36.019 14.2573 37.0842 13.8782 38.0728 13.4944L38.0872 13.4896C43.6008 8.51341 36.7723 0.835639 30.371 0.0102781Z" fill="#ED406A"/>
</svg>
