<svg width="40" height="36" viewBox="0 0 40 36" fill="none" xmlns="http://www.w3.org/2000/svg">
<path fill-rule="evenodd" clip-rule="evenodd" d="M25.6294 24.2059C26.4172 23.3008 26.8144 22.2544 27.0386 21.0282C28.5502 20.8484 30.8177 19.0253 31.5223 18.4603C32.1756 17.9339 32.9186 17.2663 33.6744 16.5152H25.6294V24.2059ZM25.6294 8.36859H30.9522C33.1876 8.36859 35.0196 10.2046 35.0196 12.4451V15.1285C36.7426 13.2475 38.3695 11.1098 39.0997 9.38931C40.6946 5.62738 36.1405 4.56173 32.8225 4.00322C31.2533 3.74001 27.5254 3.25211 25.6294 3.38051V8.36859Z" fill="#ED406A"/>
<path fill-rule="evenodd" clip-rule="evenodd" d="M13.7607 0.0422574C9.24495 0.286205 5.61957 1.62149 2.94215 4.99182C0.56579 7.98339 -0.407819 12.9458 0.155847 17.7092C0.623433 21.6252 1.68671 24.2637 2.21835 27.4479C2.42973 28.6933 2.50018 29.7589 2.59626 31.075C2.67953 32.2498 2.84607 33.3476 3.35849 34.2335C3.83249 35.0552 4.38973 35.7742 5.56831 35.9668C6.78531 36.1594 7.7077 35.4725 8.46993 34.9974L15.8424 30.5036C16.3292 30.2019 16.816 29.9066 17.3028 29.6177V16.5152H11.98C9.74457 16.5152 7.91265 14.6791 7.91265 12.4387V8.36215H17.3028V0.11929C16.1755 -0.0155228 14.9905 -0.028359 13.7607 0.0422574Z" fill="#111A63"/>
</svg>
