<svg width="43" height="34" viewBox="0 0 43 34" fill="none" xmlns="http://www.w3.org/2000/svg">
<path fill-rule="evenodd" clip-rule="evenodd" d="M17.7046 7.09269C17.4201 9.066 16.6407 10.8847 16.0839 12.7466H8.51237V16.6747C8.51237 18.8336 10.2816 20.6028 12.4404 20.6028H16.0654C16.4922 22.4523 17.018 24.3143 17.2036 26.0525C18.5583 38.6842 -0.160292 34.5458 0.0129135 16.5757C0.192305 -2.68723 19.3377 -4.20279 17.7046 7.09269Z" fill="#111A63"/>
<path fill-rule="evenodd" clip-rule="evenodd" d="M25.301 7.09269C25.5855 9.066 26.3649 10.8847 26.9217 12.7466H30.5714C32.7303 12.7466 34.4994 14.5158 34.4994 16.6747V20.6028H26.9464C26.5196 22.4523 25.9938 24.3143 25.8082 26.0525C24.4535 38.6842 43.1721 34.5458 42.9989 16.5757C42.8133 -2.68723 23.6679 -4.20279 25.301 7.09269Z" fill="#ED406A"/>
</svg>
