<svg width="44" height="35" viewBox="0 0 44 35" fill="none" xmlns="http://www.w3.org/2000/svg">
<path fill-rule="evenodd" clip-rule="evenodd" d="M18.7587 0V14.4475H11.7004V17.5C11.7004 19.1793 13.0736 20.5525 14.7529 20.5525H18.7538V27.2403C18.2104 30.5447 16.2248 32.4661 12.6537 33.8491C10.3224 34.748 7.95149 34.995 5.30402 35C2.19226 35.0049 -0.529303 34.6147 0.0881112 28.0701C1.12043 17.1493 7.01796 11.4049 13.6959 7.29042C16.1656 5.76911 15.8099 4.17372 16.0223 0H18.7587Z" fill="#111A63"/>
<path fill-rule="evenodd" clip-rule="evenodd" d="M24.8687 0V14.4475H28.8695C30.5489 14.4475 31.922 15.8206 31.922 17.5V20.5525H24.8638V27.2403C25.4071 30.5447 27.3927 32.4661 30.9638 33.8491C33.2952 34.748 35.666 34.995 38.3135 35C41.4253 35.0049 44.1468 34.6147 43.5294 28.0701C42.4971 17.1493 36.5996 11.4049 29.9216 7.29042C27.452 5.76911 27.8076 4.17372 27.6001 0H24.8687Z" fill="#ED406A"/>
</svg>
