<svg width="40" height="32" viewBox="0 0 40 32" fill="none" xmlns="http://www.w3.org/2000/svg">
<path fill-rule="evenodd" clip-rule="evenodd" d="M16.3763 1.76418V9.65771H7.68453V13.4203C7.68453 15.4913 9.37599 17.1828 11.4471 17.1828H16.3763V30.7313C15.913 32.4507 11.8378 32.3949 11.3912 30.7313C10.833 21.9167 1.80066 19.9963 0.48879 12.5103C-0.789582 2.09912 7.53939 -2.92505 16.3763 1.76418Z" fill="#111A63"/>
<path fill-rule="evenodd" clip-rule="evenodd" d="M23.7944 1.76418V9.65771H28.7237C30.7948 9.65771 32.4863 11.3492 32.4863 13.4203V17.1828H23.7944V30.7313C24.2578 32.4507 28.3329 32.3949 28.7795 30.7313C29.3378 21.9167 38.3701 19.9963 39.682 12.5103C40.9659 2.09912 32.6314 -2.92505 23.7944 1.76418Z" fill="#ED406A"/>
</svg>
