<svg width="35" height="42" viewBox="0 0 35 42" fill="none" xmlns="http://www.w3.org/2000/svg">
<path fill-rule="evenodd" clip-rule="evenodd" d="M13.2137 41.512C3.09413 41.789 0.0204355 34.1351 0.000169341 28.7579C-0.0336076 20.2326 4.99238 16.5036 8.89699 10.7953C11.5856 6.85691 13.2137 3.38465 13.2137 0.344727V22.3267H3.31028V26.6164C3.31028 28.974 5.24234 30.9061 7.59997 30.9061H13.2137V41.512Z" fill="#111A63"/>
<path fill-rule="evenodd" clip-rule="evenodd" d="M21.7861 41.1673C31.9057 41.4443 34.9794 33.7904 34.9997 28.4131C35.0334 19.8878 30.0074 16.1589 26.1028 10.4506C23.4141 6.51219 21.7861 3.03992 21.7861 0V22.3265H27.3999C29.7575 22.3265 31.6895 24.2586 31.6895 26.6162V30.9059H21.7861V41.1673Z" fill="#ED406A"/>
</svg>
