<svg width="56" height="39" viewBox="0 0 56 39" fill="none" xmlns="http://www.w3.org/2000/svg">
<path fill-rule="evenodd" clip-rule="evenodd" d="M24.5626 35.7926C21.0593 35.055 17.9642 33.2112 15.6594 30.6496L11.0894 34.4163C11.6096 35.5423 11.3264 36.9186 10.3255 37.7418C9.1336 38.723 7.37536 38.5517 6.39418 37.3598C5.41299 36.1679 5.58419 34.4097 6.76952 33.4285C7.77046 32.6054 9.1731 32.5922 10.174 33.3166L14.7441 29.5499C12.7752 26.9487 11.5569 23.7484 11.412 20.2648H5.49202C5.17593 21.4633 4.08938 22.3457 2.79211 22.3457C1.25119 22.3457 0 21.0946 0 19.5536C0 18.0127 1.25119 16.7615 2.79211 16.7615C4.08938 16.7615 5.17593 17.6439 5.49202 18.8424H11.412C11.5701 15.1416 12.9398 11.7503 15.1392 9.06353L10.7206 5.12561C9.68673 5.81046 8.2907 5.74461 7.32269 4.88196C6.17029 3.85468 6.06492 2.08986 7.0922 0.937463C8.11948 -0.214936 9.88429 -0.320292 11.0367 0.706989C12.0047 1.56964 12.2286 2.95252 11.6689 4.05882L16.0941 7.99673C18.3528 5.67217 21.2766 4.00614 24.5626 3.3147V15.754H16.6209V19.1915C16.6209 21.0814 18.1684 22.6289 20.0583 22.6289H24.5626V35.7926Z" fill="#111A63"/>
<path fill-rule="evenodd" clip-rule="evenodd" d="M31.4375 35.7926C34.9408 35.055 38.0358 33.2112 40.3406 30.6496L44.9107 34.4163C44.3905 35.5423 44.6736 36.9186 45.6746 37.7418C46.8665 38.723 48.6247 38.5517 49.6059 37.3598C50.587 36.1679 50.4159 34.4097 49.2305 33.4285C48.2296 32.6054 46.8269 32.5922 45.826 33.3166L41.2559 29.5499C43.2249 26.9487 44.4431 23.7484 44.588 20.2648H50.5081C50.8241 21.4633 51.9107 22.3457 53.208 22.3457C54.7489 22.3457 56 21.0946 56 19.5536C56 18.0127 54.7489 16.7615 53.208 16.7615C51.9107 16.7615 50.8241 17.6439 50.5081 18.8424H44.588C44.4299 15.1416 43.0603 11.7503 40.8608 9.06353L45.2795 5.12561C46.3133 5.81046 47.7094 5.74461 48.6774 4.88196C49.8298 3.85468 49.9351 2.08986 48.9078 0.937463C47.8806 -0.214936 46.1157 -0.320292 44.9634 0.706989C43.9953 1.56964 43.7715 2.95252 44.3312 4.05882L39.906 7.99673C37.6473 5.67217 34.7235 4.00614 31.4375 3.3147V15.754H35.9417C37.8316 15.754 39.3792 17.3015 39.3792 19.1915V22.6289H31.4375V35.7926Z" fill="#ED406A"/>
</svg>
