<svg width="52" height="28" viewBox="0 0 52 28" fill="none" xmlns="http://www.w3.org/2000/svg">
<path fill-rule="evenodd" clip-rule="evenodd" d="M7.00305 0C10.0365 0 12.6262 1.93313 13.5927 4.63222L21.9392 5.53799V10.0122H12.6383V14C12.6383 16.1945 14.4316 17.9878 16.6261 17.9878H21.9392V22.462L13.5927 23.3678C12.6201 26.0669 10.0365 28 7.00305 28C3.13679 28 0 24.8632 0 20.997C0 18.9058 0.917935 17.0274 2.3769 15.7447C3.09423 14.6565 3.1307 13.4954 2.35867 12.2371C0.911857 10.9544 0 9.08207 0 6.99696C0 3.1307 3.13679 0 7.00305 0Z" fill="#111A63"/>
<path fill-rule="evenodd" clip-rule="evenodd" d="M44.693 0C41.6596 0 39.0699 1.93313 38.1033 4.63222L29.7568 5.53799V10.0122H35.0699C37.2644 10.0122 39.0578 11.8055 39.0578 14V17.9878H29.7568V22.462L38.1033 23.3678C39.076 26.0669 41.6596 28 44.693 28C48.5593 28 51.696 24.8632 51.696 20.997C51.696 18.9058 50.7781 17.0274 49.3192 15.7447C48.6018 14.6565 48.5653 13.4954 49.3374 12.2371C50.7842 10.9544 51.696 9.08207 51.696 6.99696C51.696 3.1307 48.5593 0 44.693 0Z" fill="#ED406A"/>
</svg>
